<svg xmlns="http://www.w3.org/2000/svg" width="256" height="256" viewBox="0 0 100 100"><rect width="100" height="100" rx="20" fill="#000000"></rect><path fill="#ffffff" d="M5.71 64.66L5.71 62.73L8.86 62.73L8.86 37.27L5.71 37.27L5.71 35.34L17.98 35.34Q20.87 35.34 23.27 36.25Q25.66 37.15 27.36 38.98Q29.06 40.80 30.01 43.55Q30.95 46.30 30.95 50L30.95 50Q30.95 53.70 30.01 56.45Q29.06 59.20 27.36 61.02Q25.66 62.85 23.27 63.76Q20.87 64.66 17.98 64.66L17.98 64.66L5.71 64.66ZM12.47 37.40L12.47 62.60L17.60 62.60Q19.74 62.60 21.48 61.87Q23.23 61.13 24.42 59.81Q25.62 58.48 26.27 56.64Q26.92 54.79 26.92 52.52L26.92 52.52L26.92 47.48Q26.92 45.21 26.27 43.36Q25.62 41.52 24.42 40.19Q23.23 38.87 21.48 38.13Q19.74 37.40 17.60 37.40L17.60 37.40L12.47 37.40ZM35.36 64.66L35.36 62.73L38.51 62.73L38.51 37.27L35.36 37.27L35.36 35.34L57.03 35.34L57.03 42.40L54.01 42.40L54.01 37.40L42.13 37.40L42.13 48.53L50.44 48.53L50.44 45.17L52.96 45.17L52.96 53.95L50.44 53.95L50.44 50.59L42.13 50.59L42.13 62.60L54.43 62.60L54.43 57.22L57.45 57.22L57.45 64.66L35.36 64.66ZM62.28 64.66L62.28 62.73L65.43 62.73L65.43 37.27L62.28 37.27L62.28 35.34L69.68 35.34L78.24 53.49L78.37 53.49L87.36 35.34L94.29 35.34L94.29 37.27L91.14 37.27L91.14 62.73L94.29 62.73L94.29 64.66L84.38 64.66L84.38 62.73L87.53 62.73L87.53 39.58L87.36 39.58L85.51 43.66L77.45 59.74L70.27 44.71L67.91 39.58L67.74 39.58L67.74 62.73L70.89 62.73L70.89 64.66L62.28 64.66Z"></path></svg>